<svg width="66" height="73" viewBox="0 0 66 73" fill="none" xmlns="http://www.w3.org/2000/svg">
<path d="M4.375 16.5625H10.9375V48.5625C10.9375 50.1875 11.5104 51.5729 12.6562 52.7188C13.8021 53.8646 15.1771 54.4375 16.7812 54.4375H38.8125V61H16.7812C14.5104 61 12.4271 60.4479 10.5312 59.3438C8.65625 58.2188 7.15625 56.7188 6.03125 54.8438C4.92708 52.9479 4.375 50.8542 4.375 48.5625V16.5625Z" fill="#05C2DF"/>
<path d="M28.375 16.5625H51.875C53.8958 16.5625 55.7292 17.0625 57.375 18.0625C59.0417 19.0417 60.3646 20.3542 61.3438 22C62.3438 23.6458 62.8438 25.4792 62.8438 27.5V31.9375C62.8438 33.9583 62.3542 35.7812 61.375 37.4062C60.4167 39.0312 59.1042 40.3229 57.4375 41.2812C55.7708 42.2396 53.9062 42.7188 51.8438 42.7188L65.0938 61H57.0625L43.8125 42.7188H38.7188V36.1562H51.875C53.1042 36.1562 54.1458 35.7396 55 34.9062C55.8542 34.0521 56.2812 33.0312 56.2812 31.8438V27.5C56.2812 26.2917 55.8542 25.2604 55 24.4062C54.1458 23.5521 53.1042 23.125 51.875 23.125H34.9688V61H28.375V16.5625Z" fill="#0F0652"/>
<path d="M5.58594 63.0566H6.61621V70H5.58594V63.0566ZM8.27578 63.5645C8.27578 63.3887 8.33763 63.2389 8.46133 63.1152C8.58503 62.9915 8.73477 62.9297 8.91055 62.9297C9.08633 62.9297 9.23607 62.9915 9.35977 63.1152C9.48346 63.2389 9.54531 63.3887 9.54531 63.5645C9.54531 63.7402 9.48346 63.89 9.35977 64.0137C9.23607 64.1374 9.08633 64.1992 8.91055 64.1992C8.73477 64.1992 8.58503 64.1374 8.46133 64.0137C8.33763 63.89 8.27578 63.7402 8.27578 63.5645ZM8.39297 64.9414H9.42812V70H8.39297V64.9414ZM11.2 65.9668C11.2 65.6836 11.3009 65.4427 11.5027 65.2441C11.7078 65.0423 11.9536 64.9414 12.24 64.9414H14.0223C14.3576 64.9414 14.6635 65.0244 14.9402 65.1904C15.2169 65.3532 15.4367 65.5729 15.5994 65.8496C15.7654 66.1263 15.8484 66.4323 15.8484 66.7676V70H14.8182V66.7822C14.8182 66.5544 14.74 66.3607 14.5838 66.2012C14.4308 66.0417 14.2436 65.9619 14.0223 65.9619H12.2303V70H11.2V65.9668ZM17.5715 66.7578C17.5715 66.4225 17.6529 66.1182 17.8156 65.8447C17.9816 65.5713 18.203 65.3532 18.4797 65.1904C18.7564 65.0244 19.0624 64.9414 19.3977 64.9414H21.1896C21.4729 64.9414 21.7154 65.0423 21.9172 65.2441C22.119 65.446 22.2199 65.6885 22.2199 65.9717V70.0586C22.2199 70.3939 22.1369 70.6999 21.9709 70.9766C21.8081 71.2533 21.5884 71.473 21.3117 71.6357C21.035 71.8018 20.729 71.8848 20.3938 71.8848H17.8986V70.8545H20.3791C20.6037 70.8545 20.7941 70.7764 20.9504 70.6201C21.1099 70.4671 21.1896 70.2816 21.1896 70.0635V65.9717H19.3977C19.1796 65.9717 18.9924 66.0498 18.8361 66.2061C18.6799 66.359 18.6018 66.5462 18.6018 66.7676V68.1689C18.6018 68.387 18.6799 68.5758 18.8361 68.7354C18.9924 68.8916 19.1796 68.9697 19.3977 68.9697H20.6037V70H19.3977C19.0624 70 18.7564 69.9186 18.4797 69.7559C18.203 69.5898 17.9816 69.3701 17.8156 69.0967C17.6529 68.82 17.5715 68.514 17.5715 68.1787V66.7578ZM27.5215 66.3574C27.5215 66.097 27.5866 65.8594 27.7168 65.6445C27.8503 65.4297 28.026 65.2588 28.2441 65.1318C28.4655 65.0049 28.7096 64.9414 28.9766 64.9414H30.1045V65.9668H28.9766C28.8594 65.9668 28.7585 66.0075 28.6738 66.0889C28.5924 66.167 28.5518 66.263 28.5518 66.377V70H27.5215V66.3574ZM31.6371 65.9863C31.6371 65.6966 31.7429 65.4508 31.9545 65.249C32.1661 65.0439 32.42 64.9414 32.7162 64.9414H34.8256C35.0958 64.9414 35.3399 65.0081 35.558 65.1416C35.7794 65.2718 35.9551 65.4492 36.0854 65.6738C36.2188 65.8952 36.2855 66.141 36.2855 66.4111V66.5527C36.2855 66.8197 36.2188 67.0638 36.0854 67.2852C35.9551 67.5033 35.7794 67.679 35.558 67.8125C35.3399 67.9427 35.0958 68.0078 34.8256 68.0078H33.2533V66.9824H34.8354C34.9525 66.9824 35.0518 66.9401 35.1332 66.8555C35.2178 66.7708 35.2602 66.6683 35.2602 66.5479V66.4111C35.2602 66.2874 35.2178 66.1833 35.1332 66.0986C35.0518 66.014 34.9525 65.9717 34.8354 65.9717H32.6674V68.5693C32.6674 68.68 32.7048 68.7744 32.7797 68.8525C32.8546 68.9307 32.9457 68.9697 33.0531 68.9697H35.9291V70H33.0531C32.7927 70 32.5551 69.9365 32.3402 69.8096C32.1254 69.6794 31.9545 69.5068 31.8275 69.292C31.7006 69.0739 31.6371 68.8346 31.6371 68.5742V65.9863ZM37.9109 66.7578C37.9109 66.4225 37.9923 66.1182 38.1551 65.8447C38.3211 65.5713 38.5424 65.3532 38.8191 65.1904C39.0958 65.0244 39.4018 64.9414 39.7371 64.9414H42.5594V70H41.5291V65.9717H39.7371C39.519 65.9717 39.3318 66.0498 39.1756 66.2061C39.0193 66.359 38.9412 66.5462 38.9412 66.7676V68.1641C38.9412 68.3854 39.0193 68.5758 39.1756 68.7354C39.3318 68.8916 39.519 68.9697 39.7371 68.9697H40.9432V70H39.7371C39.4018 70 39.0958 69.9186 38.8191 69.7559C38.5424 69.5898 38.3211 69.3685 38.1551 69.0918C37.9923 68.8151 37.9109 68.5091 37.9109 68.1738V66.7578ZM44.2824 66.7676C44.2824 66.4323 44.3671 66.1263 44.5363 65.8496C44.7056 65.5729 44.9318 65.3532 45.215 65.1904C45.4982 65.0244 45.8124 64.9414 46.1574 64.9414H49.0041V65.9717H46.1574C45.9263 65.9717 45.7277 66.0514 45.5617 66.2109C45.3957 66.3672 45.3127 66.5576 45.3127 66.7822V68.1543C45.3127 68.3789 45.3941 68.571 45.5568 68.7305C45.7229 68.89 45.923 68.9697 46.1574 68.9697H49.0041V70H46.1574C45.8124 70 45.4982 69.917 45.215 69.751C44.9318 69.585 44.7056 69.3636 44.5363 69.0869C44.3671 68.807 44.2824 68.4993 44.2824 68.1641V66.7676ZM50.4879 64.9414H51.1471V63.0566H52.1773V64.9414H53.735V65.9717H52.1773V68.5645C52.1773 68.6751 52.2197 68.7712 52.3043 68.8525C52.3922 68.9307 52.4964 68.9697 52.6168 68.9697H53.735V70H52.6021C52.3352 70 52.0911 69.9365 51.8697 69.8096C51.6516 69.6794 51.4758 69.5068 51.3424 69.292C51.2122 69.0739 51.1471 68.833 51.1471 68.5693V65.9717H50.4879V64.9414ZM55.2188 66.7676C55.2188 66.4323 55.3001 66.1263 55.4629 65.8496C55.6289 65.5729 55.8503 65.3532 56.127 65.1904C56.4036 65.0244 56.7096 64.9414 57.0449 64.9414H58.1484C58.4837 64.9414 58.7897 65.0244 59.0664 65.1904C59.3431 65.3532 59.5628 65.5729 59.7256 65.8496C59.8916 66.1263 59.9746 66.4323 59.9746 66.7676V68.1738C59.9746 68.5091 59.8916 68.8151 59.7256 69.0918C59.5628 69.3685 59.3431 69.5898 59.0664 69.7559C58.7897 69.9186 58.4837 70 58.1484 70H57.0449C56.7096 70 56.4036 69.9186 56.127 69.7559C55.8503 69.5898 55.6289 69.3685 55.4629 69.0918C55.3001 68.8151 55.2188 68.5091 55.2188 68.1738V66.7676ZM56.249 68.1641C56.249 68.3854 56.3271 68.5758 56.4834 68.7354C56.6396 68.8916 56.8268 68.9697 57.0449 68.9697H58.1484C58.3698 68.9697 58.557 68.8916 58.71 68.7354C58.8662 68.5758 58.9443 68.3854 58.9443 68.1641V66.7773C58.9443 66.556 58.8662 66.3672 58.71 66.2109C58.557 66.0514 58.3698 65.9717 58.1484 65.9717H57.0449C56.8268 65.9717 56.6396 66.0514 56.4834 66.2109C56.3271 66.3672 56.249 66.556 56.249 66.7773V68.1641ZM61.6977 66.3574C61.6977 66.097 61.7628 65.8594 61.893 65.6445C62.0264 65.4297 62.2022 65.2588 62.4203 65.1318C62.6417 65.0049 62.8858 64.9414 63.1527 64.9414H64.2807V65.9668H63.1527C63.0355 65.9668 62.9346 66.0075 62.85 66.0889C62.7686 66.167 62.7279 66.263 62.7279 66.377V70H61.6977V66.3574Z" fill="#0F0652"/>
</svg>
