<svg width="66" height="74" viewBox="0 0 66 74" fill="none" xmlns="http://www.w3.org/2000/svg">
<path d="M5.58594 64.0566H6.61621V71H5.58594V64.0566ZM8.27578 64.5645C8.27578 64.3887 8.33763 64.2389 8.46133 64.1152C8.58503 63.9915 8.73477 63.9297 8.91055 63.9297C9.08633 63.9297 9.23607 63.9915 9.35977 64.1152C9.48346 64.2389 9.54531 64.3887 9.54531 64.5645C9.54531 64.7402 9.48346 64.89 9.35977 65.0137C9.23607 65.1374 9.08633 65.1992 8.91055 65.1992C8.73477 65.1992 8.58503 65.1374 8.46133 65.0137C8.33763 64.89 8.27578 64.7402 8.27578 64.5645ZM8.39297 65.9414H9.42812V71H8.39297V65.9414ZM11.2 66.9668C11.2 66.6836 11.3009 66.4427 11.5027 66.2441C11.7078 66.0423 11.9536 65.9414 12.24 65.9414H14.0223C14.3576 65.9414 14.6635 66.0244 14.9402 66.1904C15.2169 66.3532 15.4367 66.5729 15.5994 66.8496C15.7654 67.1263 15.8484 67.4323 15.8484 67.7676V71H14.8182V67.7822C14.8182 67.5544 14.74 67.3607 14.5838 67.2012C14.4308 67.0417 14.2436 66.9619 14.0223 66.9619H12.2303V71H11.2V66.9668ZM17.5715 67.7578C17.5715 67.4225 17.6529 67.1182 17.8156 66.8447C17.9816 66.5713 18.203 66.3532 18.4797 66.1904C18.7564 66.0244 19.0624 65.9414 19.3977 65.9414H21.1896C21.4729 65.9414 21.7154 66.0423 21.9172 66.2441C22.119 66.446 22.2199 66.6885 22.2199 66.9717V71.0586C22.2199 71.3939 22.1369 71.6999 21.9709 71.9766C21.8081 72.2533 21.5884 72.473 21.3117 72.6357C21.035 72.8018 20.729 72.8848 20.3938 72.8848H17.8986V71.8545H20.3791C20.6037 71.8545 20.7941 71.7764 20.9504 71.6201C21.1099 71.4671 21.1896 71.2816 21.1896 71.0635V66.9717H19.3977C19.1796 66.9717 18.9924 67.0498 18.8361 67.2061C18.6799 67.359 18.6018 67.5462 18.6018 67.7676V69.1689C18.6018 69.387 18.6799 69.5758 18.8361 69.7354C18.9924 69.8916 19.1796 69.9697 19.3977 69.9697H20.6037V71H19.3977C19.0624 71 18.7564 70.9186 18.4797 70.7559C18.203 70.5898 17.9816 70.3701 17.8156 70.0967C17.6529 69.82 17.5715 69.514 17.5715 69.1787V67.7578ZM27.5215 67.3574C27.5215 67.097 27.5866 66.8594 27.7168 66.6445C27.8503 66.4297 28.026 66.2588 28.2441 66.1318C28.4655 66.0049 28.7096 65.9414 28.9766 65.9414H30.1045V66.9668H28.9766C28.8594 66.9668 28.7585 67.0075 28.6738 67.0889C28.5924 67.167 28.5518 67.263 28.5518 67.377V71H27.5215V67.3574ZM31.6371 66.9863C31.6371 66.6966 31.7429 66.4508 31.9545 66.249C32.1661 66.0439 32.42 65.9414 32.7162 65.9414H34.8256C35.0958 65.9414 35.3399 66.0081 35.558 66.1416C35.7794 66.2718 35.9551 66.4492 36.0854 66.6738C36.2188 66.8952 36.2855 67.141 36.2855 67.4111V67.5527C36.2855 67.8197 36.2188 68.0638 36.0854 68.2852C35.9551 68.5033 35.7794 68.679 35.558 68.8125C35.3399 68.9427 35.0958 69.0078 34.8256 69.0078H33.2533V67.9824H34.8354C34.9525 67.9824 35.0518 67.9401 35.1332 67.8555C35.2178 67.7708 35.2602 67.6683 35.2602 67.5479V67.4111C35.2602 67.2874 35.2178 67.1833 35.1332 67.0986C35.0518 67.014 34.9525 66.9717 34.8354 66.9717H32.6674V69.5693C32.6674 69.68 32.7048 69.7744 32.7797 69.8525C32.8546 69.9307 32.9457 69.9697 33.0531 69.9697H35.9291V71H33.0531C32.7927 71 32.5551 70.9365 32.3402 70.8096C32.1254 70.6794 31.9545 70.5068 31.8275 70.292C31.7006 70.0739 31.6371 69.8346 31.6371 69.5742V66.9863ZM37.9109 67.7578C37.9109 67.4225 37.9923 67.1182 38.1551 66.8447C38.3211 66.5713 38.5424 66.3532 38.8191 66.1904C39.0958 66.0244 39.4018 65.9414 39.7371 65.9414H42.5594V71H41.5291V66.9717H39.7371C39.519 66.9717 39.3318 67.0498 39.1756 67.2061C39.0193 67.359 38.9412 67.5462 38.9412 67.7676V69.1641C38.9412 69.3854 39.0193 69.5758 39.1756 69.7354C39.3318 69.8916 39.519 69.9697 39.7371 69.9697H40.9432V71H39.7371C39.4018 71 39.0958 70.9186 38.8191 70.7559C38.5424 70.5898 38.3211 70.3685 38.1551 70.0918C37.9923 69.8151 37.9109 69.5091 37.9109 69.1738V67.7578ZM44.2824 67.7676C44.2824 67.4323 44.3671 67.1263 44.5363 66.8496C44.7056 66.5729 44.9318 66.3532 45.215 66.1904C45.4982 66.0244 45.8124 65.9414 46.1574 65.9414H49.0041V66.9717H46.1574C45.9263 66.9717 45.7277 67.0514 45.5617 67.2109C45.3957 67.3672 45.3127 67.5576 45.3127 67.7822V69.1543C45.3127 69.3789 45.3941 69.571 45.5568 69.7305C45.7229 69.89 45.923 69.9697 46.1574 69.9697H49.0041V71H46.1574C45.8124 71 45.4982 70.917 45.215 70.751C44.9318 70.585 44.7056 70.3636 44.5363 70.0869C44.3671 69.807 44.2824 69.4993 44.2824 69.1641V67.7676ZM50.4879 65.9414H51.1471V64.0566H52.1773V65.9414H53.735V66.9717H52.1773V69.5645C52.1773 69.6751 52.2197 69.7712 52.3043 69.8525C52.3922 69.9307 52.4964 69.9697 52.6168 69.9697H53.735V71H52.6021C52.3352 71 52.0911 70.9365 51.8697 70.8096C51.6516 70.6794 51.4758 70.5068 51.3424 70.292C51.2122 70.0739 51.1471 69.833 51.1471 69.5693V66.9717H50.4879V65.9414ZM55.2188 67.7676C55.2188 67.4323 55.3001 67.1263 55.4629 66.8496C55.6289 66.5729 55.8503 66.3532 56.127 66.1904C56.4036 66.0244 56.7096 65.9414 57.0449 65.9414H58.1484C58.4837 65.9414 58.7897 66.0244 59.0664 66.1904C59.3431 66.3532 59.5628 66.5729 59.7256 66.8496C59.8916 67.1263 59.9746 67.4323 59.9746 67.7676V69.1738C59.9746 69.5091 59.8916 69.8151 59.7256 70.0918C59.5628 70.3685 59.3431 70.5898 59.0664 70.7559C58.7897 70.9186 58.4837 71 58.1484 71H57.0449C56.7096 71 56.4036 70.9186 56.127 70.7559C55.8503 70.5898 55.6289 70.3685 55.4629 70.0918C55.3001 69.8151 55.2188 69.5091 55.2188 69.1738V67.7676ZM56.249 69.1641C56.249 69.3854 56.3271 69.5758 56.4834 69.7354C56.6396 69.8916 56.8268 69.9697 57.0449 69.9697H58.1484C58.3698 69.9697 58.557 69.8916 58.71 69.7354C58.8662 69.5758 58.9443 69.3854 58.9443 69.1641V67.7773C58.9443 67.556 58.8662 67.3672 58.71 67.2109C58.557 67.0514 58.3698 66.9717 58.1484 66.9717H57.0449C56.8268 66.9717 56.6396 67.0514 56.4834 67.2109C56.3271 67.3672 56.249 67.556 56.249 67.7773V69.1641ZM61.6977 67.3574C61.6977 67.097 61.7628 66.8594 61.893 66.6445C62.0264 66.4297 62.2022 66.2588 62.4203 66.1318C62.6417 66.0049 62.8858 65.9414 63.1527 65.9414H64.2807V66.9668H63.1527C63.0355 66.9668 62.9346 67.0075 62.85 67.0889C62.7686 67.167 62.7279 67.263 62.7279 67.377V71H61.6977V67.3574Z" fill="white"/>
<path d="M4.375 16.5625H10.9375V48.5625C10.9375 50.1875 11.5104 51.5729 12.6562 52.7188C13.8021 53.8646 15.1771 54.4375 16.7812 54.4375H38.8125V61H16.7812C14.5104 61 12.4271 60.4479 10.5312 59.3438C8.65625 58.2188 7.15625 56.7188 6.03125 54.8438C4.92708 52.9479 4.375 50.8542 4.375 48.5625V16.5625Z" fill="#05C2DF"/>
<path d="M28.375 16.5625H51.875C53.8958 16.5625 55.7292 17.0625 57.375 18.0625C59.0417 19.0417 60.3646 20.3542 61.3438 22C62.3438 23.6458 62.8438 25.4792 62.8438 27.5V31.9375C62.8438 33.9583 62.3542 35.7812 61.375 37.4062C60.4167 39.0312 59.1042 40.3229 57.4375 41.2812C55.7708 42.2396 53.9062 42.7188 51.8438 42.7188L65.0938 61H57.0625L43.8125 42.7188H38.7188V36.1562H51.875C53.1042 36.1562 54.1458 35.7396 55 34.9062C55.8542 34.0521 56.2812 33.0312 56.2812 31.8438V27.5C56.2812 26.2917 55.8542 25.2604 55 24.4062C54.1458 23.5521 53.1042 23.125 51.875 23.125H34.9688V61H28.375V16.5625Z" fill="white"/>
</svg>
